<?xml version="1.0" standalone="no"?>
<!DOCTYPE svg PUBLIC "-//W3C//DTD SVG 20010904//EN"
 "http://www.w3.org/TR/2001/REC-SVG-20010904/DTD/svg10.dtd">
<svg version="1.0" xmlns="http://www.w3.org/2000/svg"
 width="180.000000pt" height="90.000000pt" viewBox="170 30 150.000000 70.000000"
 preserveAspectRatio="xMidYMid meet">

<g transform="translate(0.000000,150.000000) scale(0.100000,-0.100000)"
fill="#007560" stroke="none">
<path d="M1960 1049 c-46 -25 -100 -26 -100 -2 0 16 -1 16 -16 1 -28 -28 -7
-41 53 -34 62 7 63 14 -12 -82 -35 -44 -45 -51 -75 -52 -54 0 -84 -41 -40 -55
11 -3 20 -10 20 -13 0 -4 -22 -34 -50 -67 -27 -33 -50 -63 -50 -67 -1 -23 25
0 76 68 54 72 58 75 93 72 33 -3 36 -6 35 -33 0 -16 -4 -47 -8 -67 -13 -60 7
-46 67 46 41 62 62 85 83 90 43 11 98 36 92 42 -3 2 -24 -3 -47 -12 -23 -9
-44 -14 -47 -12 -2 3 20 42 51 86 30 44 55 83 55 88 0 16 -39 -30 -90 -106
-51 -75 -57 -80 -99 -86 -43 -7 -71 2 -78 22 -2 6 25 44 59 85 94 111 93 109
77 108 -8 -1 -30 -10 -49 -20z m-140 -199 c0 -5 -6 -10 -14 -10 -8 0 -18 5
-21 10 -3 6 3 10 14 10 12 0 21 -4 21 -10z m150 -16 c0 -4 -9 -22 -21 -40 -24
-39 -39 -36 -39 6 0 28 2 29 53 39 4 0 7 -2 7 -5z"/>
<path d="M2177 850 c-67 -20 -127 -93 -127 -154 0 -31 13 -32 65 -6 47 24 45
24 45 5 0 -23 50 -18 116 11 36 16 60 22 62 15 2 -6 12 -21 22 -33 13 -17 21
-20 31 -12 30 23 153 66 157 54 2 -6 14 -23 27 -38 17 -20 26 -24 36 -16 8 6
34 19 59 29 25 9 51 19 58 22 8 4 12 -5 12 -26 0 -37 11 -39 65 -11 47 24 45
24 45 5 0 -21 48 -19 101 4 49 22 55 21 39 -8 -8 -17 -8 -21 3 -21 8 0 19 12
26 28 30 66 92 135 108 119 2 -3 -7 -28 -21 -56 -27 -53 -32 -76 -17 -85 12
-8 86 19 122 44 47 35 33 42 -18 10 -47 -30 -83 -39 -83 -20 0 6 11 33 25 60
41 81 31 99 -33 60 l-34 -21 7 21 c14 43 -16 18 -39 -33 -21 -47 -29 -56 -76
-75 -85 -36 -95 -30 -60 38 21 41 26 85 12 94 -19 12 -84 -17 -124 -55 -45
-43 -106 -79 -133 -79 -18 0 -14 28 11 67 30 48 9 57 -42 18 -18 -14 -39 -25
-47 -25 -7 0 -38 -13 -68 -30 -49 -27 -89 -38 -89 -25 0 3 11 28 25 55 29 57
20 64 -37 25 -20 -14 -42 -25 -48 -25 -14 0 -63 -31 -72 -45 -9 -15 -86 -40
-95 -32 -3 4 4 29 16 55 23 48 25 93 6 98 -5 1 -23 -2 -38 -6z m23 -40 c0 -28
-35 -72 -76 -96 -24 -14 -47 -24 -50 -21 -10 9 28 71 60 99 31 28 66 37 66 18z
m690 0 c0 -28 -35 -72 -76 -96 -24 -14 -47 -24 -50 -21 -10 9 28 71 60 99 31
28 66 37 66 18z m-483 -61 c-19 -38 -21 -40 -34 -23 -18 24 -17 27 15 46 39
25 42 23 19 -23z m217 -3 c-14 -28 -20 -33 -31 -25 -20 17 -16 33 14 51 15 9
29 15 31 14 1 -2 -5 -20 -14 -40z"/>
</g>
</svg>
